<?xml version="1.0" standalone="no"?>
<svg viewBox="0 0 200 200" xmlns="http://www.w3.org/2000/svg">
  <path fill="#78B8F8" d="M47.8,-72.7C62.7,-64.8,76.1,-52.8,80,-38.3C83.8,-23.8,78.1,-6.7,74.2,9.7C70.3,26,68.2,41.7,59.6,51.8C51,61.8,35.9,66.4,21.9,67.1C7.9,67.8,-5.1,64.6,-18.4,61.3C-31.7,58,-45.5,54.7,-57.1,46.5C-68.8,38.4,-78.4,25.5,-80.1,11.7C-81.7,-2.1,-75.5,-16.8,-67.4,-29.2C-59.3,-41.5,-49.3,-51.4,-37.8,-60.8C-26.3,-70.2,-13.1,-79,1.7,-81.6C16.5,-84.2,32.9,-80.5,47.8,-72.7Z" transform="translate(100 100)" />
</svg>
