<svg xmlns="http://www.w3.org/2000/svg" version="1.1" xmlns:xlink="http://www.w3.org/1999/xlink" xmlns:svgjs="http://svgjs.com/svgjs" width="1440" height="560" preserveAspectRatio="none" viewBox="0 0 1440 560"><g mask="url(&quot;#SvgjsMask1002&quot;)" fill="none"><path d="M1656.64 114.75C1477.46 117.39 1317.01 333.32 973.91 333.15 630.81 332.98 483.39-12.43 291.18-22.91" stroke="rgba(51,121,194,0.58)" stroke-width="2"></path><path d="M1626.5 112.29C1493.33 114.47 1316.29 281.7 1120.94 280.29 925.59 278.88 968.7-33.47 868.16-76.24" stroke="rgba(51,121,194,0.58)" stroke-width="2"></path><path d="M1721.77 270.12C1572.8 272.03 1445.98 446.05 1151.69 443.72 857.4 441.39 763.56 5.61 581.61-22.84" stroke="rgba(51,121,194,0.58)" stroke-width="2"></path><path d="M1720.37 451.54C1528.08 448.68 1292.46 229.85 987.97 216.34 683.48 202.83 737.79-59.7 621.77-77.03" stroke="rgba(51,121,194,0.58)" stroke-width="2"></path><path d="M1717.71 317.49C1581.59 319 1471.54 473.86 1194.63 468.69 917.71 463.52 850.58-6.18 671.54-46.98" stroke="rgba(51,121,194,0.58)" stroke-width="2"></path></g><defs><mask id="SvgjsMask1002"><rect width="1440" height="560" fill="#78C5F5"></rect></mask></defs></svg>