<svg xmlns="http://www.w3.org/2000/svg" version="1.1" xmlns:xlink="http://www.w3.org/1999/xlink" xmlns:svgjs="http://svgjs.com/svgjs" width="1440" height="250" preserveAspectRatio="none" viewBox="0 0 1440 250"><g mask="url(&quot;#SvgjsMask1015&quot;)" fill="none"><path d="M39 250L289 0L580 0L330 250z" fill="url(#SvgjsLinearGradient1016)"></path><path d="M244.60000000000002 250L494.6 0L770.6 0L520.6 250z" fill="url(#SvgjsLinearGradient1016)"></path><path d="M486.20000000000005 250L736.2 0L865.2 0L615.2 250z" fill="url(#SvgjsLinearGradient1016)"></path><path d="M722.8000000000001 250L972.8000000000001 0L1064.3000000000002 0L814.3000000000001 250z" fill="url(#SvgjsLinearGradient1016)"></path><path d="M1401 250L1151 0L1014.5 0L1264.5 250z" fill="url(#SvgjsLinearGradient1017)"></path><path d="M1156.4 250L906.4000000000001 0L865.9000000000001 0L1115.9 250z" fill="url(#SvgjsLinearGradient1017)"></path><path d="M922.8 250L672.8 0L360.79999999999995 0L610.8 250z" fill="url(#SvgjsLinearGradient1017)"></path><path d="M703.1999999999999 250L453.19999999999993 0L136.69999999999993 0L386.69999999999993 250z" fill="url(#SvgjsLinearGradient1017)"></path><path d="M1218.7242472348364 250L1440 28.724247234836497L1440 250z" fill="url(#SvgjsLinearGradient1016)"></path><path d="M0 250L221.2757527651635 250L 0 28.724247234836497z" fill="url(#SvgjsLinearGradient1017)"></path></g><defs><mask id="SvgjsMask1015"><rect width="1440" height="250" fill="#ffffff"></rect></mask><linearGradient x1="0%" y1="100%" x2="100%" y2="0%" id="SvgjsLinearGradient1016"><stop stop-color="rgba(15, 70, 185, 0.2)" offset="0"></stop><stop stop-opacity="0" stop-color="rgba(15, 70, 185, 0.2)" offset="0.66"></stop></linearGradient><linearGradient x1="100%" y1="100%" x2="0%" y2="0%" id="SvgjsLinearGradient1017"><stop stop-color="rgba(15, 70, 185, 0.2)" offset="0"></stop><stop stop-opacity="0" stop-color="rgba(15, 70, 185, 0.2)" offset="0.66"></stop></linearGradient></defs></svg>