<svg xmlns="http://www.w3.org/2000/svg" version="1.1" xmlns:xlink="http://www.w3.org/1999/xlink" xmlns:svgjs="http://svgjs.com/svgjs" width="1440" height="560" preserveAspectRatio="none" viewBox="0 0 1440 560"><g mask="url(&quot;#SvgjsMask1013&quot;)" fill="none"><path d="M0 0L86.8 0L0 7.85z" fill="rgba(255, 255, 255, .1)"></path><path d="M0 7.85L86.8 0L620.06 0L0 221.06z" fill="rgba(255, 255, 255, .075)"></path><path d="M0 221.06L620.06 0L1056.3999999999999 0L0 385.67z" fill="rgba(255, 255, 255, .05)"></path><path d="M0 385.67L1056.3999999999999 0L1216.6 0L0 425.38z" fill="rgba(255, 255, 255, .025)"></path><path d="M1440 560L1308.16 560L1440 350.01z" fill="rgba(0, 0, 0, .1)"></path><path d="M1440 350.01L1308.16 560L974.7800000000001 560L1440 192.14z" fill="rgba(0, 0, 0, .075)"></path><path d="M1440 192.14L974.78 560L858.24 560L1440 96.63999999999999z" fill="rgba(0, 0, 0, .05)"></path><path d="M1440 96.63999999999999L858.24 560L370.81 560L1440 83.04999999999998z" fill="rgba(0, 0, 0, .025)"></path></g><defs><mask id="SvgjsMask1013"><rect width="1440" height="560" fill="#ffffff"></rect></mask></defs></svg>