<svg xmlns="http://www.w3.org/2000/svg" version="1.1" xmlns:xlink="http://www.w3.org/1999/xlink" xmlns:svgjs="http://svgjs.com/svgjs" width="1440" height="560" preserveAspectRatio="none" viewBox="0 0 1440 560"><g mask="url(&quot;#SvgjsMask1011&quot;)" fill="none"><path d="M -645.6521991607291,360 C -549.65,342.4 -357.65,274.6 -165.65219916072908,272 C 26.35,269.4 122.35,352.4 314.3478008392709,347 C 506.35,341.6 602.35,253 794.3478008392709,245 C 986.35,237 1145.22,321.4 1274.3478008392708,307 C 1403.48,292.6 1406.87,199.8 1440,173" stroke="rgba(51, 121, 194, 0.58)" stroke-width="2"></path><path d="M -811.2989677484741,351 C -715.3,325.8 -523.3,210.4 -331.298967748474,225 C -139.3,239.6 -43.3,415.2 148.701032251526,424 C 340.7,432.8 436.7,275 628.7010322515259,269 C 820.7,263 946.44,404.8 1108.701032251526,394 C 1270.96,383.2 1373.74,250.8 1440,215" stroke="rgba(51, 121, 194, 0.58)" stroke-width="2"></path><path d="M -515.5775504231522,319 C -419.58,290 -227.58,170 -35.57755042315218,174 C 156.42,178 252.42,331.2 444.42244957684784,339 C 636.42,346.8 732.42,217.2 924.4224495768478,213 C 1116.42,208.8 1301.31,328.2 1404.4224495768478,318 C 1507.54,307.8 1432.88,193.2 1440,162" stroke="rgba(51, 121, 194, 0.58)" stroke-width="2"></path><path d="M -172.62973413266104,175 C -76.63,217.2 115.37,391.8 307.37026586733896,386 C 499.37,380.2 595.37,147 787.370265867339,146 C 979.37,145 1075.37,355.6 1267.370265867339,381 C 1459.37,406.4 1712.84,286.6 1747.370265867339,273 C 1781.9,259.4 1501.47,305 1440,313" stroke="rgba(51, 121, 194, 0.58)" stroke-width="2"></path></g><defs><mask id="SvgjsMask1011"><rect width="1440" height="560" fill="#78C5F5"></rect></mask></defs></svg>